<svg width="100" height="100" viewBox="0 0 100 100" fill="none" xmlns="http://www.w3.org/2000/svg">
<g clip-path="url(#clip0_4158_3876)">
<path d="M81.25 12.5V87.5C81.251 90.2026 80.376 92.8328 78.7562 94.9962C77.1365 97.1597 74.8592 98.7399 72.2656 99.5C69.8906 100.203 71.6562 100 31.25 100C27.9348 100 24.7554 98.683 22.4112 96.3388C20.067 93.9946 18.75 90.8152 18.75 87.5V12.5C18.75 9.18479 20.067 6.00537 22.4112 3.66117C24.7554 1.31696 27.9348 0 31.25 0L68.75 0C72.0652 0 75.2446 1.31696 77.5888 3.66117C79.933 6.00537 81.25 9.18479 81.25 12.5Z" fill="#47C09A"/>
<path d="M76.5625 14.0625V84.375C76.5625 86.8614 75.5748 89.246 73.8166 91.0041C72.0585 92.7623 69.6739 93.75 67.1875 93.75H32.8125C30.3261 93.75 27.9415 92.7623 26.1834 91.0041C24.4252 89.246 23.4375 86.8614 23.4375 84.375V14.0625C23.4375 11.5761 24.4252 9.19153 26.1834 7.43337C27.9415 5.67522 30.3261 4.6875 32.8125 4.6875H37.9531C38.278 4.68991 38.5941 4.79355 38.8573 4.98398C39.1206 5.17442 39.3179 5.44218 39.4219 5.75L39.9063 7.23438C40.1132 7.85798 40.5115 8.40049 41.0445 8.78478C41.5774 9.16907 42.2179 9.3756 42.875 9.375H57.125C57.7821 9.3756 58.4226 9.16907 58.9555 8.78478C59.4885 8.40049 59.8868 7.85798 60.0938 7.23438L60.5781 5.76563C60.6803 5.45236 60.8788 5.17941 61.1454 4.98577C61.412 4.79214 61.733 4.68774 62.0625 4.6875H67.1875C69.6739 4.6875 72.0585 5.67522 73.8166 7.43337C75.5748 9.19153 76.5625 11.5761 76.5625 14.0625Z" fill="white"/>
<path d="M59.375 29.6875C58.9606 29.6875 58.5632 29.5229 58.2701 29.2299C57.9771 28.9368 57.8125 28.5394 57.8125 28.125V25C57.8125 22.928 56.9894 20.9409 55.5243 19.4757C54.0591 18.0106 52.072 17.1875 50 17.1875C47.928 17.1875 45.9409 18.0106 44.4757 19.4757C43.0106 20.9409 42.1875 22.928 42.1875 25V28.125C42.1875 28.5394 42.0229 28.9368 41.7299 29.2299C41.4368 29.5229 41.0394 29.6875 40.625 29.6875C40.2106 29.6875 39.8132 29.5229 39.5201 29.2299C39.2271 28.9368 39.0625 28.5394 39.0625 28.125V25C39.0625 22.0992 40.2148 19.3172 42.266 17.266C44.3172 15.2148 47.0992 14.0625 50 14.0625C52.9008 14.0625 55.6828 15.2148 57.734 17.266C59.7852 19.3172 60.9375 22.0992 60.9375 25V28.125C60.9375 28.5394 60.7729 28.9368 60.4799 29.2299C60.1868 29.5229 59.7894 29.6875 59.375 29.6875Z" fill="#1F1F1F"/>
<path d="M62.2188 26.5625H37.7812C36.0554 26.5625 34.6562 27.9616 34.6562 29.6875V51.5625C34.6562 53.2884 36.0554 54.6875 37.7812 54.6875H62.2188C63.9446 54.6875 65.3438 53.2884 65.3438 51.5625V29.6875C65.3438 27.9616 63.9446 26.5625 62.2188 26.5625Z" fill="#199675"/>
<path d="M59.375 34.375C60.2379 34.375 60.9375 33.6754 60.9375 32.8125C60.9375 31.9496 60.2379 31.25 59.375 31.25C58.5121 31.25 57.8125 31.9496 57.8125 32.8125C57.8125 33.6754 58.5121 34.375 59.375 34.375Z" fill="#F3F3F3"/>
<path d="M59.375 40.625C60.2379 40.625 60.9375 39.9254 60.9375 39.0625C60.9375 38.1996 60.2379 37.5 59.375 37.5C58.5121 37.5 57.8125 38.1996 57.8125 39.0625C57.8125 39.9254 58.5121 40.625 59.375 40.625Z" fill="#F3F3F3"/>
<path d="M54.6875 39.0625C54.6899 38.2026 54.4557 37.3585 54.0106 36.6228C53.5654 35.8871 52.9265 35.2879 52.1636 34.891C51.4008 34.4941 50.5434 34.3147 49.6855 34.3724C48.8275 34.4301 48.0019 34.7227 47.2991 35.2182C46.5962 35.7137 46.0432 36.393 45.7006 37.1817C45.358 37.9704 45.239 38.8382 45.3565 39.69C45.474 40.5419 45.8236 41.345 46.3671 42.0115C46.9105 42.6779 47.6267 43.1821 48.4375 43.4687V46.875C48.4375 47.2894 48.6021 47.6868 48.8951 47.9798C49.1882 48.2729 49.5856 48.4375 50 48.4375C50.4144 48.4375 50.8118 48.2729 51.1048 47.9798C51.3979 47.6868 51.5625 47.2894 51.5625 46.875V43.4687C52.4743 43.1464 53.2641 42.5499 53.8235 41.761C54.383 40.9722 54.6848 40.0296 54.6875 39.0625Z" fill="#47C09A"/>
<path d="M76.5625 57.8125H81.25V82.8125H76.5625V57.8125ZM18.75 57.8125H23.4375V82.8125H18.75V57.8125Z" fill="#199675"/>
<path d="M23.4375 57.8125H76.5625V82.8125H23.4375V57.8125Z" fill="#F3F3F3"/>
<path d="M87.5 60.9375H12.5C10.7741 60.9375 9.375 62.3366 9.375 64.0625V76.5625C9.375 78.2884 10.7741 79.6875 12.5 79.6875H87.5C89.2259 79.6875 90.625 78.2884 90.625 76.5625V64.0625C90.625 62.3366 89.2259 60.9375 87.5 60.9375Z" fill="#1F1F1F"/>
<path d="M21.875 76.5625C21.4606 76.5625 21.0632 76.3979 20.7701 76.1049C20.4771 75.8118 20.3125 75.4144 20.3125 75V65.625C20.3125 65.2106 20.4771 64.8132 20.7701 64.5201C21.0632 64.2271 21.4606 64.0625 21.875 64.0625C22.2894 64.0625 22.6868 64.2271 22.9799 64.5201C23.2729 64.8132 23.4375 65.2106 23.4375 65.625V75C23.4375 75.4144 23.2729 75.8118 22.9799 76.1049C22.6868 76.3979 22.2894 76.5625 21.875 76.5625Z" fill="#F3F3F3"/>
<path d="M25.937 74.2188C25.3433 74.2188 25.7808 74.375 17.0308 69.3281C16.6702 69.1209 16.4068 68.779 16.2984 68.3776C16.19 67.9761 16.2454 67.548 16.4527 67.1875C16.6599 66.827 17.0018 66.5635 17.4032 66.4551C17.8047 66.3467 18.2327 66.4022 18.5933 66.6094L26.7183 71.2969C27.0193 71.4675 27.2552 71.7331 27.3889 72.0522C27.5227 72.3712 27.5468 72.7257 27.4574 73.0599C27.3681 73.3941 27.1703 73.6893 26.8951 73.899C26.62 74.1087 26.283 74.2212 25.937 74.2188Z" fill="#F3F3F3"/>
<path d="M17.8117 74.2188C17.4657 74.2212 17.1288 74.1087 16.8536 73.899C16.5784 73.6892 16.3807 73.3941 16.2913 73.0599C16.2019 72.7257 16.226 72.3712 16.3598 72.0522C16.4936 71.7331 16.7295 71.4674 17.0305 71.2969L25.1555 66.6094C25.334 66.5068 25.5309 66.4404 25.7351 66.4139C25.9393 66.3874 26.1467 66.4014 26.3455 66.4551C26.5443 66.5088 26.7305 66.6011 26.8936 66.7268C27.0567 66.8524 27.1935 67.009 27.2961 67.1875C27.3987 67.366 27.4651 67.563 27.4916 67.7672C27.518 67.9714 27.504 68.1788 27.4504 68.3775C27.3967 68.5763 27.3044 68.7626 27.1787 68.9257C27.053 69.0888 26.8965 69.2255 26.718 69.3281C17.9523 74.375 18.4055 74.2188 17.8117 74.2188ZM40.6242 76.5625C40.2098 76.5625 39.8124 76.3979 39.5194 76.1049C39.2263 75.8118 39.0617 75.4144 39.0617 75V65.625C39.0617 65.2106 39.2263 64.8132 39.5194 64.5201C39.8124 64.2271 40.2098 64.0625 40.6242 64.0625C41.0386 64.0625 41.436 64.2271 41.7291 64.5201C42.0221 64.8132 42.1867 65.2106 42.1867 65.625V75C42.1867 75.4144 42.0221 75.8118 41.7291 76.1049C41.436 76.3979 41.0386 76.5625 40.6242 76.5625Z" fill="#F3F3F3"/>
<path d="M44.687 74.2188C44.0933 74.2188 44.5308 74.375 35.7808 69.3281C35.4202 69.1209 35.1568 68.779 35.0484 68.3776C34.94 67.9761 34.9955 67.548 35.2027 67.1875C35.4099 66.827 35.7518 66.5635 36.1532 66.4551C36.5547 66.3467 36.9827 66.4022 37.3433 66.6094L45.4683 71.2969C45.7693 71.4675 46.0052 71.7331 46.1389 72.0522C46.2727 72.3712 46.2968 72.7257 46.2074 73.0599C46.1181 73.3941 45.9203 73.6893 45.6451 73.899C45.37 74.1087 45.033 74.2212 44.687 74.2188Z" fill="#F3F3F3"/>
<path d="M36.5617 74.2188C36.2157 74.2212 35.8788 74.1087 35.6036 73.899C35.3284 73.6892 35.1307 73.3941 35.0413 73.0599C34.9519 72.7257 34.976 72.3712 35.1098 72.0522C35.2436 71.7331 35.4795 71.4674 35.7805 71.2969L43.9055 66.6094C44.084 66.5068 44.2809 66.4404 44.4851 66.4139C44.6893 66.3874 44.8967 66.4014 45.0955 66.4551C45.2943 66.5088 45.4805 66.6011 45.6436 66.7268C45.8067 66.8524 45.9435 67.009 46.0461 67.1875C46.1487 67.366 46.2151 67.563 46.2416 67.7672C46.268 67.9714 46.254 68.1788 46.2004 68.3775C46.1467 68.5763 46.0544 68.7626 45.9287 68.9257C45.803 69.0888 45.6465 69.2255 45.468 69.3281C36.7023 74.375 37.1555 74.2188 36.5617 74.2188ZM59.3742 76.5625C58.9598 76.5625 58.5624 76.3979 58.2694 76.1049C57.9763 75.8118 57.8117 75.4144 57.8117 75V65.625C57.8117 65.2106 57.9763 64.8132 58.2694 64.5201C58.5624 64.2271 58.9598 64.0625 59.3742 64.0625C59.7886 64.0625 60.186 64.2271 60.4791 64.5201C60.7721 64.8132 60.9367 65.2106 60.9367 65.625V75C60.9367 75.4144 60.7721 75.8118 60.4791 76.1049C60.186 76.3979 59.7886 76.5625 59.3742 76.5625Z" fill="#F3F3F3"/>
<path d="M63.437 74.2188C62.8433 74.2188 63.2808 74.375 54.5308 69.3281C54.1703 69.1209 53.9068 68.779 53.7984 68.3776C53.69 67.9761 53.7454 67.548 53.9527 67.1875C54.1599 66.827 54.5018 66.5635 54.9032 66.4551C55.3047 66.3467 55.7328 66.4022 56.0933 66.6094L64.2183 71.2969C64.5193 71.4675 64.7552 71.7331 64.8889 72.0522C65.0227 72.3712 65.0468 72.7257 64.9574 73.0599C64.8681 73.3941 64.6703 73.6893 64.3951 73.899C64.12 74.1087 63.783 74.2212 63.437 74.2188Z" fill="#F3F3F3"/>
<path d="M55.3117 74.2188C54.9657 74.2212 54.6288 74.1087 54.3536 73.899C54.0784 73.6892 53.8807 73.3941 53.7913 73.0599C53.7019 72.7257 53.726 72.3712 53.8598 72.0522C53.9936 71.7331 54.2295 71.4674 54.5305 71.2969L62.6555 66.6094C62.834 66.5068 63.0309 66.4404 63.2351 66.4139C63.4393 66.3874 63.6467 66.4014 63.8455 66.4551C64.0443 66.5088 64.2305 66.6011 64.3936 66.7268C64.5567 66.8524 64.6935 67.009 64.7961 67.1875C64.8987 67.366 64.9651 67.563 64.9916 67.7672C65.018 67.9714 65.004 68.1788 64.9504 68.3775C64.8967 68.5763 64.8044 68.7626 64.6787 68.9257C64.553 69.0888 64.3965 69.2255 64.218 69.3281C55.4523 74.375 55.9055 74.2188 55.3117 74.2188ZM78.1242 76.5625C77.7098 76.5625 77.3124 76.3979 77.0194 76.1049C76.7263 75.8118 76.5617 75.4144 76.5617 75V65.625C76.5617 65.2106 76.7263 64.8132 77.0194 64.5201C77.3124 64.2271 77.7098 64.0625 78.1242 64.0625C78.5386 64.0625 78.936 64.2271 79.2291 64.5201C79.5221 64.8132 79.6867 65.2106 79.6867 65.625V75C79.6867 75.4144 79.5221 75.8118 79.2291 76.1049C78.936 76.3979 78.5386 76.5625 78.1242 76.5625Z" fill="#F3F3F3"/>
<path d="M82.187 74.2188C81.5933 74.2188 82.0308 74.375 73.2808 69.3281C72.9203 69.1209 72.6568 68.779 72.5484 68.3776C72.44 67.9761 72.4954 67.548 72.7027 67.1875C72.9099 66.827 73.2518 66.5635 73.6532 66.4551C74.0547 66.3467 74.4828 66.4022 74.8433 66.6094L82.9683 71.2969C83.2693 71.4675 83.5052 71.7331 83.6389 72.0522C83.7727 72.3712 83.7968 72.7257 83.7074 73.0599C83.6181 73.3941 83.4203 73.6893 83.1451 73.899C82.87 74.1087 82.533 74.2212 82.187 74.2188Z" fill="#F3F3F3"/>
<path d="M74.0617 74.2188C73.7157 74.2212 73.3788 74.1087 73.1036 73.899C72.8284 73.6893 72.6307 73.3941 72.5413 73.0599C72.4519 72.7257 72.476 72.3712 72.6098 72.0522C72.7436 71.7331 72.9795 71.4675 73.2805 71.2969L81.4055 66.6094C81.584 66.5068 81.7809 66.4404 81.9851 66.4139C82.1893 66.3874 82.3967 66.4014 82.5955 66.4551C82.7943 66.5088 82.9805 66.6011 83.1436 66.7268C83.3067 66.8524 83.4435 67.009 83.5461 67.1875C83.6487 67.366 83.7151 67.563 83.7416 67.7672C83.768 67.9714 83.754 68.1788 83.7004 68.3776C83.6467 68.5763 83.5544 68.7626 83.4287 68.9257C83.303 69.0888 83.1465 69.2255 82.968 69.3281C74.2023 74.375 74.6555 74.2188 74.0617 74.2188Z" fill="#F3F3F3"/>
<path d="M65.625 90.625H34.375C33.9606 90.625 33.5632 90.4604 33.2701 90.1674C32.9771 89.8743 32.8125 89.4769 32.8125 89.0625C32.8125 88.6481 32.9771 88.2507 33.2701 87.9576C33.5632 87.6646 33.9606 87.5 34.375 87.5H65.625C66.0394 87.5 66.4368 87.6646 66.7299 87.9576C67.0229 88.2507 67.1875 88.6481 67.1875 89.0625C67.1875 89.4769 67.0229 89.8743 66.7299 90.1674C66.4368 90.4604 66.0394 90.625 65.625 90.625Z" fill="#D9D9D9"/>
</g>
<defs>
<clipPath id="clip0_4158_3876">
<rect width="100" height="100" fill="white"/>
</clipPath>
</defs>
</svg>
